<?xml version="1.0" standalone="no"?>
<!DOCTYPE svg PUBLIC "-//W3C//DTD SVG 20010904//EN"
 "http://www.w3.org/TR/2001/REC-SVG-20010904/DTD/svg10.dtd">
<svg version="1.0" xmlns="http://www.w3.org/2000/svg"
 width="4375.000000pt" height="4179.000000pt" viewBox="0 0 4375.000000 4179.000000"
 preserveAspectRatio="xMidYMid meet">

<g transform="translate(0.000000,4179.000000) scale(0.100000,-0.100000)"
fill="#000000" stroke="none">
<path d="M24865 22685 c-5 -2 -37 -9 -69 -15 -47 -10 -66 -19 -93 -49 -73 -78
-103 -167 -113 -336 -13 -204 -18 -210 -190 -220 -109 -7 -117 -6 -142 15 -34
26 -35 55 -12 281 16 160 14 198 -14 255 -21 44 -68 59 -141 43 -42 -9 -54
-17 -73 -47 -22 -36 -23 -43 -20 -260 1 -139 -2 -230 -8 -242 -16 -31 -46 -41
-138 -50 -97 -9 -122 -26 -122 -86 0 -49 28 -64 122 -64 88 0 122 -10 139 -41
18 -35 23 -393 10 -829 -11 -352 -10 -391 6 -457 32 -140 117 -181 208 -102
53 47 60 84 45 241 -16 177 -28 498 -31 851 l-3 288 26 25 c28 28 108 43 240
44 103 0 102 2 118 -282 8 -153 11 -368 8 -628 l-5 -395 24 -37 c26 -42 53
-53 119 -45 72 8 112 58 116 144 1 26 -1 226 -6 443 l-8 395 28 37 c40 50 93
83 168 103 52 14 70 15 99 5 46 -14 124 -100 136 -148 18 -66 28 -275 20 -402
-4 -69 -11 -232 -15 -362 l-7 -238 40 -40 c38 -37 45 -40 97 -40 53 0 59 2
100 43 26 27 45 56 50 78 11 56 -14 663 -40 946 -8 95 -59 191 -126 240 -83
62 -107 68 -253 68 -112 -1 -137 -4 -178 -23 -98 -45 -132 -21 -132 93 0 85
10 100 106 165 72 49 140 125 187 209 36 63 37 70 37 161 0 92 -1 97 -36 150
-35 53 -50 65 -142 104 -34 14 -106 20 -132 11z m132 -249 c21 -62 1 -127 -52
-170 -58 -48 -79 -48 -71 0 5 22 3 41 -5 50 -9 12 -8 26 6 69 37 107 95 131
122 51z"/>
<path d="M21925 22659 c-54 -39 -93 -97 -101 -147 -7 -45 5 -289 27 -587 6
-77 12 -417 14 -755 1 -338 3 -621 4 -627 0 -7 17 -31 37 -53 32 -35 42 -40
79 -40 24 0 64 9 90 20 52 22 114 25 180 9 57 -14 170 3 233 36 115 59 204
192 223 333 14 107 6 438 -14 535 -20 98 -97 257 -150 310 -45 45 -81 62 -175
82 -63 13 -74 12 -143 -5 -119 -31 -141 -26 -151 32 -8 45 9 367 28 510 22
174 16 253 -22 303 -28 37 -76 65 -111 65 -10 0 -32 -10 -48 -21z m406 -1054
c29 -15 109 -138 109 -167 0 -8 9 -36 21 -62 23 -52 49 -210 49 -297 0 -113
-21 -263 -44 -314 -27 -59 -77 -120 -117 -141 -51 -26 -79 -18 -134 39 -91 94
-122 193 -136 432 -18 306 3 419 96 504 41 38 44 39 85 30 23 -5 55 -16 71
-24z"/>
<path d="M15305 22645 c-87 -8 -288 -14 -532 -14 l-391 -1 -26 -31 c-30 -35
-31 -39 -12 -83 24 -58 46 -66 176 -66 l116 0 30 -31 29 -30 6 -282 c3 -155
13 -352 22 -437 44 -429 54 -762 37 -1217 -14 -388 -15 -380 47 -420 37 -24
134 -24 161 0 50 45 57 170 29 472 -26 276 -32 513 -32 1200 0 588 1 633 18
678 27 68 49 77 202 77 118 0 127 -2 149 -23 34 -34 45 -112 56 -402 6 -143
15 -323 21 -400 7 -77 11 -338 11 -580 -1 -480 3 -518 54 -552 31 -20 104 -12
144 17 57 41 63 80 57 377 -3 148 -12 332 -22 411 l-16 142 22 45 c12 25 39
56 58 70 47 32 144 65 191 65 57 0 138 -66 164 -135 33 -85 37 -154 36 -577
-1 -478 0 -487 63 -513 28 -12 43 -12 83 -2 39 10 53 20 75 52 25 37 28 51 32
158 4 95 8 121 22 137 10 11 22 20 26 20 4 0 38 -43 74 -95 106 -151 185 -201
345 -216 157 -15 237 17 362 144 111 113 129 142 131 212 1 62 -8 75 -55 75
-29 0 -109 -60 -126 -95 -5 -11 -28 -43 -51 -72 -82 -102 -221 -139 -308 -81
-59 39 -111 107 -119 154 -9 62 24 95 128 127 236 74 348 150 410 279 120 247
48 496 -167 582 -75 30 -121 32 -223 11 -109 -23 -171 -59 -246 -143 -67 -73
-100 -128 -136 -224 -11 -29 -31 -66 -44 -83 -22 -27 -26 -28 -40 -15 -8 8
-18 40 -21 70 -13 128 -48 209 -122 287 -65 68 -126 87 -279 86 -90 -1 -120
-5 -159 -22 -61 -27 -91 -27 -109 2 -12 18 -14 70 -12 297 2 151 7 328 11 392
8 113 7 119 -15 151 -13 19 -32 39 -42 46 -29 18 -144 20 -293 6z m1717 -1048
c82 -63 110 -185 63 -285 -41 -88 -100 -137 -252 -209 -103 -48 -132 -52 -158
-23 -16 17 -17 33 -12 123 3 56 12 121 20 142 56 150 113 246 162 270 17 8 53
15 82 15 43 0 59 -5 95 -33z"/>
<path d="M18187 22650 c-120 -6 -131 -11 -143 -75 -8 -43 13 -999 25 -1140 6
-60 14 -285 18 -500 9 -425 9 -409 1 -640 -3 -87 -2 -170 3 -182 12 -32 48
-44 149 -51 127 -8 418 -3 477 9 59 12 93 44 93 88 0 56 -1 56 -235 56 l-216
0 -19 24 c-22 30 -28 120 -35 536 -3 154 -8 288 -11 298 -8 26 23 105 46 117
11 6 104 10 214 10 107 0 202 3 211 6 42 16 48 82 11 113 -20 17 -152 20 -306
7 -129 -11 -163 1 -179 62 -7 23 -11 202 -11 473 0 496 6 557 62 604 28 24 36
25 159 25 139 0 164 7 180 47 14 37 -8 102 -39 114 -24 9 -242 9 -455 -1z"/>
<path d="M19043 22636 c-45 -16 -81 -54 -94 -96 -8 -27 -7 -147 6 -461 14
-345 16 -501 9 -839 -5 -228 -9 -485 -9 -570 0 -148 1 -157 24 -189 35 -49 80
-65 147 -51 38 8 58 18 67 33 16 30 16 270 -2 552 -9 160 -12 407 -10 908 l4
688 -25 19 c-28 22 -68 24 -117 6z"/>
<path d="M19497 22279 c-22 -13 -67 -104 -67 -137 0 -36 27 -79 67 -107 49
-32 66 -32 118 6 53 38 80 95 70 149 -11 58 -29 77 -85 89 -63 13 -80 13 -103
0z"/>
<path d="M27880 21988 c-80 -5 -244 -6 -365 -4 -280 6 -423 -3 -441 -29 -16
-21 -18 -57 -5 -83 5 -9 25 -51 46 -92 91 -180 293 -334 474 -361 141 -21 333
-22 499 -4 181 20 244 17 275 -14 22 -21 22 -27 23 -355 1 -376 9 -434 72
-561 43 -88 71 -122 189 -231 122 -113 234 -170 283 -144 42 23 45 63 45 670
0 535 -1 579 -19 635 -29 94 -61 159 -110 227 -52 73 -187 208 -208 208 -9 0
-35 15 -59 33 -24 19 -84 49 -134 67 -131 49 -256 57 -565 38z"/>
<path d="M19530 21833 c-39 -15 -78 -56 -89 -93 -16 -55 -17 -1185 -1 -1234
29 -89 176 -70 224 28 18 37 19 49 8 205 -6 91 -10 198 -8 236 1 39 6 219 11
401 l8 332 -26 43 c-47 81 -78 101 -127 82z"/>
<path d="M23232 21821 c-167 -42 -319 -202 -369 -389 -30 -112 -39 -258 -24
-397 27 -243 57 -319 168 -426 74 -71 152 -106 258 -115 139 -11 220 16 329
109 89 78 136 147 149 221 14 84 8 96 -46 96 -44 0 -46 -1 -111 -85 -82 -103
-117 -134 -191 -170 -63 -31 -105 -34 -162 -10 -53 22 -80 51 -115 119 -36 71
-38 109 -9 140 23 24 31 27 181 69 149 41 295 144 353 249 12 22 28 52 36 67
20 36 26 188 11 262 -14 66 -73 168 -112 193 -45 29 -183 79 -228 82 -25 2
-78 -5 -118 -15z m209 -173 c23 -13 53 -43 72 -72 28 -45 32 -58 31 -116 -1
-42 -8 -82 -21 -110 -39 -86 -150 -175 -294 -235 -71 -30 -98 -31 -133 -4 -21
16 -26 29 -26 62 1 53 22 148 48 212 11 28 28 70 36 95 22 63 75 140 115 167
45 31 119 31 172 1z"/>
<path d="M21355 21813 c-119 -14 -315 -105 -368 -170 -10 -13 -24 -23 -31 -23
-14 0 -106 -110 -158 -190 -20 -30 -55 -95 -78 -145 -23 -49 -47 -101 -54
-114 -7 -16 -11 -97 -11 -235 l0 -211 42 -86 c40 -82 45 -87 95 -109 82 -36
151 -38 234 -5 87 34 170 81 187 105 7 10 36 39 65 65 50 45 54 47 71 31 13
-12 20 -38 24 -99 8 -98 23 -122 92 -149 62 -24 105 -17 138 22 27 32 43 115
32 172 -3 18 -7 177 -9 353 -2 220 -7 329 -15 350 -20 50 -50 75 -91 75 -74 0
-108 -50 -179 -266 -51 -155 -80 -219 -159 -343 -60 -96 -105 -139 -167 -160
-43 -15 -53 -15 -77 -3 -46 22 -62 65 -66 177 -4 108 17 267 44 319 8 17 31
69 51 116 20 47 48 99 64 115 15 17 42 47 60 68 33 39 165 137 185 137 6 0 46
11 88 25 50 16 99 25 142 25 79 0 100 10 110 52 10 42 6 69 -13 91 -14 14 -32
17 -117 16 -56 -1 -114 -4 -131 -6z"/>
<path d="M19945 21800 c-22 -6 -50 -12 -63 -15 -51 -12 -83 -85 -49 -113 7 -6
96 -12 210 -15 201 -5 211 -7 245 -47 19 -23 8 -79 -33 -166 -20 -44 -45 -99
-55 -124 -10 -25 -32 -69 -49 -98 -17 -29 -31 -56 -31 -60 0 -4 -7 -20 -16
-37 -9 -16 -56 -109 -106 -205 -49 -96 -94 -180 -99 -186 -16 -19 -49 -126
-49 -157 0 -45 34 -93 71 -101 44 -8 529 -7 612 3 57 6 73 12 99 38 l31 32
-37 37 -36 36 -153 -3 c-175 -3 -221 3 -259 39 -36 33 -35 49 5 152 40 100
247 523 283 575 13 20 38 65 54 98 17 34 41 80 55 102 32 52 34 121 4 159 -34
43 -98 54 -359 60 -133 3 -252 1 -275 -4z"/>
<path d="M26470 21204 c-143 -26 -169 -50 -151 -136 7 -29 26 -75 43 -102 72
-112 263 -277 354 -306 21 -7 49 -18 61 -26 38 -24 197 -37 358 -30 171 8 337
22 377 31 36 9 91 -25 108 -66 10 -24 12 -99 6 -340 l-6 -309 25 -103 c14 -56
34 -113 44 -127 10 -14 28 -43 39 -65 11 -22 62 -81 114 -132 79 -78 107 -99
183 -134 82 -39 91 -41 115 -28 14 8 37 37 51 65 l25 50 -2 260 c-2 142 -5
295 -8 339 -2 44 -5 172 -5 285 -2 241 -15 325 -70 425 -82 150 -218 284 -362
357 -149 75 -210 87 -466 88 -120 0 -283 5 -363 10 -194 13 -378 10 -470 -6z"/>
<path d="M18447 19629 c-58 -14 -75 -26 -99 -72 -23 -41 -23 -48 -20 -325 1
-155 9 -356 17 -445 36 -383 40 -665 19 -1073 -6 -99 -4 -115 15 -152 27 -53
56 -72 108 -72 37 0 45 5 76 43 19 23 40 52 46 64 12 23 9 138 -9 388 -5 72
-12 209 -14 305 -6 202 -3 213 79 281 96 79 156 94 227 58 69 -36 102 -82 133
-184 l28 -90 -7 -265 c-3 -146 -10 -328 -16 -405 l-10 -140 27 -72 c31 -79 58
-103 116 -103 29 0 41 7 66 37 47 57 59 90 70 197 10 100 21 126 50 126 19 0
82 -62 101 -98 15 -31 180 -139 233 -153 62 -17 220 -6 288 20 41 16 80 43
141 100 97 91 138 160 138 232 0 56 -15 71 -67 67 -33 -3 -42 -9 -70 -53 -18
-27 -51 -67 -73 -87 -22 -21 -40 -42 -40 -47 0 -20 -87 -67 -145 -79 -109 -22
-190 22 -237 128 -47 104 -28 149 74 175 197 51 276 91 373 190 33 34 75 90
93 125 29 58 32 70 32 157 0 119 -14 174 -60 243 -55 80 -77 97 -171 130 -94
33 -149 37 -232 15 -150 -39 -258 -139 -346 -320 -62 -128 -69 -139 -85 -150
-23 -14 -34 6 -41 75 -4 30 -18 93 -33 140 -39 127 -107 194 -227 226 -73 20
-158 17 -262 -8 -117 -28 -145 -21 -154 37 -9 51 -1 488 11 619 8 87 6 105
-11 151 -26 70 -52 83 -132 64z m1478 -989 c37 -14 71 -57 95 -118 44 -116 15
-219 -88 -311 -76 -69 -116 -91 -226 -121 l-79 -21 -24 23 c-24 22 -25 27 -19
98 10 123 66 304 114 369 55 74 152 109 227 81z"/>
<path d="M22870 19630 c-114 -24 -291 -151 -347 -248 -14 -26 -45 -81 -69
-122 -54 -95 -141 -364 -159 -490 -38 -267 -55 -484 -45 -595 17 -209 58 -456
88 -540 78 -213 131 -311 193 -357 19 -13 62 -46 97 -71 79 -58 140 -77 256
-78 162 -2 244 33 342 141 41 46 114 178 114 208 0 27 45 115 70 137 22 19 23
19 34 1 40 -66 97 -121 142 -136 49 -17 124 -12 165 11 26 14 30 103 20 464
-12 451 1 521 126 651 99 105 181 117 240 36 109 -148 129 -158 201 -96 33 28
42 42 42 68 0 47 -45 130 -101 185 -66 65 -132 85 -255 77 -102 -6 -195 -19
-194 -26 1 -3 -2 -13 -5 -22 -10 -26 -25 -22 -25 6 0 30 -11 34 -108 41 -66 5
-82 3 -108 -13 -50 -32 -68 -112 -69 -307 -1 -168 -9 -205 -44 -205 -11 0 -34
21 -55 50 -64 89 -68 90 -324 90 -179 0 -229 -3 -252 -15 -34 -18 -50 -43 -50
-79 0 -46 45 -60 210 -63 80 -2 155 -6 167 -9 12 -2 34 -21 48 -41 25 -37 25
-39 25 -250 0 -264 -20 -365 -110 -558 -34 -72 -43 -83 -93 -112 -49 -29 -64
-33 -128 -33 l-73 0 -66 68 c-64 65 -133 174 -146 229 -4 16 -13 39 -20 53
-46 90 -74 309 -74 588 0 196 8 270 45 427 13 55 29 134 36 175 11 71 33 136
102 313 51 133 187 275 262 276 34 1 106 -37 152 -80 100 -92 173 -75 173 43
0 40 -4 47 -72 110 -40 38 -89 76 -108 85 -41 20 -181 27 -250 13z m577 -1932
c-3 -8 -6 -5 -6 6 -1 11 2 17 5 13 3 -3 4 -12 1 -19z"/>
<path d="M17825 19623 c-68 -7 -76 -13 -101 -66 -23 -51 -23 -57 -14 -165 9
-104 9 -115 -10 -152 -13 -26 -33 -46 -58 -58 -51 -24 -52 -46 -5 -71 75 -38
87 -60 94 -174 21 -330 31 -725 25 -1054 -6 -317 -4 -368 9 -400 33 -78 93
-114 159 -95 22 6 33 20 52 62 28 65 30 138 14 479 -27 595 -41 1090 -31 1110
6 11 21 28 34 38 12 10 30 38 40 63 17 43 17 46 0 58 -10 7 -31 24 -47 39
l-28 27 6 111 c8 121 -3 192 -34 220 -22 20 -66 31 -105 28z"/>
<path d="M14538 19593 c-15 -10 -32 -31 -38 -47 -13 -38 -13 -455 0 -891 6
-187 15 -486 20 -665 6 -207 6 -383 0 -485 -5 -88 -10 -218 -11 -288 0 -122 1
-130 24 -161 25 -32 79 -56 128 -56 31 0 84 33 101 62 18 32 24 421 8 548 -19
160 -25 281 -18 370 4 47 9 149 10 227 3 151 13 186 41 142 8 -13 20 -55 27
-94 7 -42 32 -113 61 -175 26 -58 55 -131 63 -163 24 -97 72 -156 139 -171 24
-6 34 -1 63 29 19 21 40 58 49 88 8 29 24 75 34 102 11 28 36 102 56 165 29
92 44 123 73 153 20 20 39 37 43 37 11 0 46 -91 54 -140 5 -25 9 -295 10 -600
2 -533 2 -557 22 -604 11 -27 29 -55 39 -63 27 -20 88 -16 139 9 69 34 78 79
57 303 -37 389 -44 943 -22 1551 7 187 11 377 8 422 -4 73 -8 86 -32 111 -48
50 -136 63 -191 27 -21 -14 -80 -179 -109 -301 -34 -149 -148 -584 -162 -620
-9 -22 -18 -80 -21 -130 -6 -94 -14 -115 -43 -115 -10 0 -23 -7 -30 -15 -45
-55 -85 27 -130 265 -22 118 -64 313 -105 480 -33 138 -51 228 -75 380 -30
188 -63 286 -103 311 -41 25 -140 26 -179 2z m891 -1210 c0 -5 -4 -17 -9 -28
-8 -18 -9 -17 -9 8 -1 15 4 27 9 27 6 0 10 -3 9 -7z"/>
<path d="M17133 19567 c-52 -49 -62 -83 -63 -213 0 -100 -14 -123 -80 -130
-69 -8 -97 -23 -120 -61 -26 -45 -25 -57 8 -83 24 -19 35 -21 93 -16 82 8 116
-3 134 -47 23 -55 38 -853 26 -1362 -4 -147 -2 -164 17 -209 12 -27 22 -55 22
-62 0 -10 15 -14 54 -14 78 0 101 12 136 72 l31 53 -6 190 c-3 105 -10 242
-15 305 -9 102 -37 753 -42 950 -2 103 13 131 83 150 39 11 85 53 75 68 -3 6
-29 18 -56 27 -70 23 -90 52 -90 130 0 34 5 86 11 116 8 40 8 66 -1 97 -17 66
-39 82 -111 82 -57 0 -62 -2 -106 -43z"/>
<path d="M24874 18900 c-143 -32 -223 -85 -344 -225 -59 -69 -91 -116 -116
-174 -55 -127 -67 -189 -68 -346 0 -239 55 -390 201 -545 103 -110 130 -122
271 -128 196 -8 278 20 399 136 84 82 121 146 163 281 31 100 32 109 27 225
-6 128 -20 186 -75 306 -38 84 -135 197 -201 235 -59 35 -68 55 -46 108 21 52
2 98 -54 126 -47 24 -50 24 -157 1z m-60 -299 c23 -36 28 -39 95 -49 87 -13
172 -59 206 -111 13 -20 28 -63 35 -96 6 -33 15 -82 21 -108 5 -27 9 -92 9
-145 0 -114 -40 -267 -86 -334 -33 -47 -109 -116 -142 -129 -31 -12 -114 -11
-147 1 -74 28 -156 124 -176 206 -7 27 -16 56 -20 65 -5 9 -13 59 -19 110 -9
76 -8 112 4 184 28 169 68 330 91 365 12 18 87 79 97 80 4 0 19 -17 32 -39z"/>
<path d="M26720 18888 c-26 -18 -38 -38 -54 -88 -19 -61 -20 -86 -19 -412 1
-191 7 -393 13 -449 14 -136 13 -780 -1 -1057 -11 -208 -11 -225 6 -263 38
-83 126 -105 202 -50 87 63 103 172 78 541 -8 124 -15 255 -15 291 0 90 15
103 119 106 204 5 267 30 386 154 59 62 85 99 119 172 68 144 74 164 86 287 6
63 13 134 15 158 6 56 -10 127 -52 237 -55 142 -138 233 -245 271 -23 8 -90
17 -149 21 -101 6 -107 5 -151 -21 -68 -39 -81 -36 -128 38 -36 56 -47 65 -85
75 -64 16 -88 14 -125 -11z m546 -287 c38 -23 79 -103 94 -180 24 -126 3 -357
-45 -491 -62 -175 -199 -288 -298 -246 -87 37 -113 114 -104 310 6 116 11 145
46 252 69 209 114 294 183 344 48 35 80 38 124 11z"/>
<path d="M20383 18885 c-17 -7 -39 -25 -49 -39 -18 -29 -16 -87 12 -296 7 -58
14 -146 14 -195 0 -167 27 -347 84 -559 19 -73 114 -270 150 -313 55 -65 142
-51 190 32 27 45 31 55 109 279 44 126 56 152 81 167 45 28 70 9 115 -85 21
-45 44 -99 51 -121 29 -92 43 -123 83 -189 29 -49 50 -73 74 -82 45 -19 111
-17 152 4 43 21 96 97 115 165 19 69 46 263 57 417 5 69 16 170 23 225 8 55
18 159 21 230 6 135 -2 188 -33 213 -24 18 -86 15 -113 -7 -23 -18 -24 -25
-36 -287 -21 -459 -45 -604 -99 -604 -43 0 -124 150 -170 315 -48 168 -97 227
-173 205 -53 -15 -89 -57 -111 -126 -10 -34 -36 -97 -58 -140 -21 -44 -49
-104 -61 -136 -26 -66 -84 -138 -111 -138 -44 0 -61 52 -90 275 -37 278 -48
420 -43 548 6 144 -4 194 -48 231 -35 30 -85 34 -136 11z"/>
<path d="M25620 18868 c-19 -5 -43 -17 -54 -26 -44 -39 -47 -67 -53 -446 -9
-567 16 -707 152 -828 71 -64 84 -69 198 -75 77 -4 118 -2 165 11 95 24 143
21 173 -10 43 -46 87 -67 126 -61 43 7 99 57 112 101 8 28 26 914 22 1106 -3
179 -25 226 -103 224 -48 -1 -112 -30 -143 -64 -17 -19 -20 -35 -18 -96 1 -41
7 -107 13 -147 6 -40 11 -162 11 -272 -1 -301 -24 -401 -124 -529 -123 -156
-286 -116 -327 80 -17 82 -14 480 5 609 9 61 19 150 22 198 5 80 3 94 -22 152
-24 57 -31 66 -64 75 -42 12 -45 11 -91 -2z"/>
<path d="M16655 18790 c-144 -26 -309 -72 -359 -101 -135 -75 -314 -303 -374
-474 -49 -141 -55 -186 -50 -357 4 -126 8 -161 25 -198 36 -79 78 -126 138
-155 51 -25 63 -27 139 -23 50 4 98 13 122 24 21 10 84 62 140 116 56 54 109
98 117 98 24 0 35 -27 42 -110 9 -99 36 -155 86 -180 67 -35 118 -25 145 28
17 34 18 69 20 417 1 414 -6 495 -46 527 -27 22 -97 24 -127 3 -30 -21 -72
-100 -89 -167 -25 -95 -91 -273 -125 -335 -18 -32 -49 -78 -69 -103 -20 -25
-46 -59 -58 -76 -27 -39 -110 -77 -149 -68 -52 11 -73 27 -83 63 -19 69 -7
255 26 386 23 95 116 273 176 338 91 97 257 175 383 177 75 2 127 21 145 53
13 24 13 30 0 54 -20 36 -77 73 -109 72 -14 -1 -44 -5 -66 -9z"/>
</g>
</svg>
